<?xml version="1.0" encoding="UTF-8"?>
<svg width="35px" height="31px" viewBox="0 0 35 31" version="1.1" xmlns="http://www.w3.org/2000/svg" xmlns:xlink="http://www.w3.org/1999/xlink">
    <!-- Generator: Sketch 54.1 (76490) - https://sketchapp.com -->
    <title>cloud</title>
    <desc>Created with Sketch.</desc>
    <g id="Page-1" stroke="none" stroke-width="1" fill="none" fill-rule="evenodd">
        <g id="Blank-TIle-Copy-2" transform="translate(-223.000000, -457.000000)">
            <g id="icons" transform="translate(176.000000, 348.000000)">
                <g id="cloud" transform="translate(47.000000, 109.000000)">
                    <g id="Group-5" transform="translate(1.000000, 1.000000)" fill="#EFC732">
                        <ellipse id="Oval" cx="12.6410256" cy="5.85" rx="4.79487179" ry="4.95"></ellipse>
                        <ellipse id="Oval-Copy-2" cx="21.3589744" cy="4.95" rx="4.79487179" ry="4.95"></ellipse>
                        <ellipse id="Oval-Copy-3" cx="22.2307692" cy="12.15" rx="4.79487179" ry="4.95"></ellipse>
                        <ellipse id="Oval-Copy-4" cx="29.2051282" cy="13.05" rx="4.79487179" ry="4.95"></ellipse>
                        <ellipse id="Oval-Copy-5" cx="23.974359" cy="14.85" rx="4.79487179" ry="4.95"></ellipse>
                        <ellipse id="Oval-Copy-6" cx="4.79487179" cy="11.25" rx="4.79487179" ry="4.95"></ellipse>
                        <ellipse id="Oval-Copy-7" cx="6.53846154" cy="22.05" rx="4.79487179" ry="4.95"></ellipse>
                        <ellipse id="Oval-Copy-8" cx="19.6153846" cy="22.05" rx="4.79487179" ry="4.95"></ellipse>
                        <ellipse id="Oval-Copy-9" cx="13.0769231" cy="14.4" rx="8.71794872" ry="9"></ellipse>
                    </g>
                    <g id="Asset-2d" fill="#000000" fill-rule="nonzero">
                        <path d="M33.6899709,11.7681851 C33.3324817,11.118043 32.6742019,10.6585961 31.8477484,10.4777815 C31.1117565,10.3165111 30.3533888,10.2940802 29.609597,10.4115816 C28.8285962,10.5556289 28.0552692,10.7406372 27.2926443,10.9658821 L26.817914,11.0972938 C26.9065749,10.7530874 26.9638414,10.4011342 26.9889706,10.0460002 C26.9995416,9.54209066 27.0283713,9.05102589 27.0562401,8.57675811 C27.1302365,7.33279324 27.199428,6.15799242 26.9601409,4.86660077 C26.7016339,3.48331973 26.0375881,2.47945293 25.038156,1.95183002 C23.9810643,1.39258926 22.6443239,1.44199215 21.2681827,2.08917006 C20.8197572,2.31154869 20.3851932,2.56233916 19.9669989,2.84009405 C19.8103572,2.93889984 19.6537154,3.03770563 19.4951516,3.13651142 C19.0809639,3.38945424 18.6735031,3.64239705 18.2458615,3.9111488 L18.0248332,4.04848884 C17.9777446,3.94968305 17.928734,3.85087727 17.8874113,3.75207148 C17.674071,3.3034932 17.4741846,2.87862831 17.2387414,2.47253652 C16.4430397,1.09419578 15.508955,0.283988317 14.4518634,0.0626633515 C13.3947717,-0.158661614 12.2415808,0.206919802 10.9855637,1.14952702 C10.4544406,1.5514879 9.97068219,2.01571205 9.544075,2.53280805 C7.99591619,4.40023745 7.23673217,6.33781895 7.23096621,8.44337029 L7.14832086,8.44337029 C6.83792031,8.44337029 6.55442754,8.44337029 6.27093477,8.44337029 C4.2220989,8.45917922 2.48174161,9.28223143 1.09599052,10.8917777 C0.134998083,12.006307 -0.208076215,13.2048212 0.122505182,14.2669834 C0.453086579,15.3291457 1.41311802,16.0998308 2.82289392,16.4337944 C3.41540536,16.5626677 4.01532887,16.652435 4.61898878,16.7025461 C4.74872276,16.7153909 4.88037872,16.7282356 5.01299568,16.7430565 C4.97647796,16.8211131 4.94092124,16.9001577 4.90536452,16.9772262 C4.80926528,17.1748378 4.71893199,17.3803538 4.63244267,17.5898221 C3.40525533,20.5945061 3.28705327,23.1229462 4.25381165,25.5515925 C4.79004543,26.8953512 5.78563359,27.8636479 6.98591314,28.206504 C7.30123146,28.2972429 7.62715769,28.3431204 7.95459352,28.342856 C8.82081098,28.330343 9.65973572,28.0294204 10.3455427,27.4852218 C11.2037089,26.8301394 11.8552618,25.9102575 12.4856728,25.0210054 C12.71535,24.6969224 12.9536762,24.3619708 13.1939243,24.0497445 C13.3062946,23.8982281 13.3987084,23.7321153 13.4687681,23.5557156 C14.5575725,25.2541871 15.7463202,26.4615938 17.0109862,27.1512582 C18.4697727,27.9466448 20.0717471,28.0839848 21.7717427,27.5593261 C22.7000614,27.2727893 23.6937276,26.5930055 24.4433017,25.7412996 C25.8559606,24.1248369 25.6416593,22.0696765 25.415826,20.6033986 C25.8549996,20.4146796 26.2912901,20.2358411 26.7150878,20.0609549 C27.8826936,19.5827348 28.9859129,19.1302043 30.0295507,18.5225487 C31.9400037,17.4099956 33.2133186,15.931861 33.8139389,14.1286553 C34.0993537,13.269045 34.055148,12.43216 33.6899709,11.7681851 Z M7.45487745,26.4388685 C6.81101252,26.2412569 6.26997378,25.6938728 5.93170444,24.911331 C5.26573669,23.3699607 5.19846722,21.6616086 5.73950596,19.9710416 C6.02107674,19.0817895 6.45640631,18.2597253 6.91768268,17.3852941 C7.15024285,16.9446203 7.39049096,16.4891256 7.60671425,16.0286906 C7.62881708,15.9822519 7.65380288,15.9298849 7.67974968,15.88147 C7.83543045,15.5850527 8.0708736,15.1265938 7.83350847,14.7165498 L7.81524961,14.6878961 C7.66465974,14.46797 7.42873831,14.3259626 7.1685017,14.2986013 C7.13486697,14.2986013 7.10219323,14.293661 7.07240246,14.293661 C6.80036317,14.298601 6.53844872,14.4005893 6.33147729,14.5821739 C5.24939981,15.1651281 4.06065217,15.1591997 2.59225574,14.5643889 C1.76964621,14.2304253 1.56111085,13.7087307 1.89649721,12.8184906 C2.24822044,11.8847759 3.17077318,11.0399864 4.36336479,10.55485 C5.59055213,10.060821 6.86675008,10.0331554 7.77680992,10.486674 C8.12372818,10.6595841 8.8838732,10.7534496 9.18466383,10.5232321 C9.66516005,10.1566627 9.66516005,9.40475061 9.46719561,8.86230683 C8.96844053,7.516572 9.30190491,5.71633054 10.3320888,4.16409161 C11.3007692,2.71164653 12.6480806,1.84017948 13.9358104,1.83326307 L13.9358104,1.83326307 C14.3519201,1.83326307 15.0150049,2.22255788 15.385948,2.68496897 C16.405561,3.95067111 16.788036,5.53749207 16.529529,7.39602894 C16.4286248,8.11039479 16.6256282,8.90380527 17.2800641,9.06683482 L17.3300357,9.07869151 L17.3809683,9.07869151 C18.2996771,9.05102589 18.5947017,8.15386933 18.688879,7.62229419 C18.7260626,7.37886546 18.742462,7.13255878 18.7378896,6.88619107 C18.7426946,6.35362788 18.7455776,5.9682853 19.2135809,5.61060835 L19.4922687,5.39619979 C20.6819773,4.48027014 21.8053775,3.61769561 23.266086,3.5356868 C24.0877345,3.49221225 24.7075746,3.87656677 24.9631986,4.58994456 C25.2774431,5.45745938 25.4696416,6.63720049 25.4321629,7.45531241 C25.3946842,8.27342434 25.0035603,9.99758534 24.7181455,11.2593353 L24.7114186,11.288977 C24.5019222,12.2177514 24.5509328,12.8550487 24.8584504,13.1820959 C25.2707162,13.6198055 26.1923079,13.4646804 26.7045169,13.3342568 C27.197506,13.2077854 27.6847292,13.0427797 28.1556155,12.8827144 C28.8821257,12.6366879 29.5682743,12.4035063 30.2765258,12.3017363 C30.8002666,12.2266439 31.6123052,12.5102165 31.8573583,12.8550487 C31.9803653,13.0319111 31.8333335,13.9231393 31.515245,14.3312072 C29.3366752,17.1195065 27.0533571,18.2962835 24.3270216,18.0364243 C23.8253836,17.9880094 23.4554015,18.100648 23.2286073,18.3693998 C22.9873982,18.6549485 22.9345436,19.073885 23.0681215,19.653875 C23.135391,19.9502924 23.2161144,20.2388053 23.2949157,20.5223779 C23.4736603,21.1705439 23.641834,21.7821517 23.6677808,22.3947476 C23.7091035,23.392686 23.4438696,24.2335233 22.8989868,24.826358 C22.3300793,25.4488345 21.4747961,25.7897144 20.4253923,25.8144159 C17.7788192,25.867771 16.020203,24.7147075 15.0515226,22.2870493 C15.0217319,22.2129449 14.9938631,22.1339003 14.9659943,22.0548557 C14.8612461,21.7584383 14.7420831,21.4234867 14.494147,21.1814125 C14.4297605,21.1181768 14.3586471,21.0391322 14.2846507,20.9551472 C13.9704061,20.6004345 13.5398815,20.11431 12.9171584,20.2635067 L12.8777578,20.2733873 L12.84124,20.2901843 C12.3126942,20.5470793 12.2021801,21.2851586 12.1291446,21.7722711 L12.1291446,21.7979606 C11.8466129,23.682187 10.9538509,25.1198112 9.47584454,26.0732871 C8.78681296,26.5109967 8.09105444,26.6384562 7.45679943,26.4388685 L7.45487745,26.4388685 Z" id="Shape"></path>
                        <path d="M29.7720485,22.3307301 C29.4632316,22.1288654 29.076774,22.0870113 28.7320587,22.2180972 C28.0006576,22.4821383 27.3715052,23.3176531 27.0739705,24.0294563 C26.9477715,24.3304262 27.0905514,24.7514149 27.2517544,25.0209954 C27.4838867,25.4087481 27.8293218,25.6515551 28.2005493,25.6857143 L28.2235783,25.6857143 L28.2475285,25.6857143 C28.9899835,25.6598641 29.659667,25.3718192 30.0852429,24.8954373 C30.3785926,24.5856482 30.5324095,24.1688795 30.5108189,23.7423346 C30.4647609,23.1394715 30.1828859,22.5975409 29.7720485,22.3307301 Z" id="Path"></path>
                        <path d="M28.3309503,28.3429148 C27.5701162,28.3549838 26.2772088,28.5256728 26.1648709,29.5342896 C26.1003597,29.9737322 26.3222201,30.408296 26.7449431,30.6704922 C27.0580952,30.8682274 27.4338526,30.9828585 27.8244084,30.9998013 C27.9064633,31.0016534 27.9882054,30.9905431 28.0654243,30.9670428 C28.6220077,30.7825608 29.3123753,30.3437693 29.5973051,29.7825646 C29.6994305,29.5842894 29.6228365,29.3317042 29.3654805,29.0067054 C29.2102499,28.8058441 28.7864296,28.3368804 28.3309503,28.3429148 Z" id="Path"></path>
                    </g>
                </g>
            </g>
        </g>
    </g>
</svg>