<?xml version="1.0" encoding="UTF-8"?>
<svg width="29px" height="33px" viewBox="0 0 29 33" version="1.1" xmlns="http://www.w3.org/2000/svg" xmlns:xlink="http://www.w3.org/1999/xlink">
    <!-- Generator: Sketch 54.1 (76490) - https://sketchapp.com -->
    <title>lightbulb</title>
    <desc>Created with Sketch.</desc>
    <g id="Page-1" stroke="none" stroke-width="1" fill="none" fill-rule="evenodd">
        <g id="Desktop-Copy-2" transform="translate(-542.000000, -866.000000)">
            <g id="lightbulb" transform="translate(542.000000, 866.000000)">
                <ellipse id="Oval" fill="#EFC732" cx="15.5" cy="15" rx="10.5" ry="10"></ellipse>
                <g id="Asset-3d" fill="#000000" fill-rule="nonzero">
                    <path d="M25.6832634,11.5833541 C25.6152707,8.36418873 23.0259597,4.9434851 20.2540929,4.40514188 C14.2576955,3.24311941 9.75061774,4.73468419 6.47579123,8.96517223 C3.44592473,12.8770119 3.36396092,17.1292879 6.24945937,20.6316962 C6.83158865,21.337988 7.67916889,21.8118753 8.49880693,22.2657903 C8.70651066,22.3801769 8.92166564,22.5000105 9.12378093,22.6180284 C9.41437987,22.7887004 9.76086322,22.6743138 10.0672961,22.5735447 C10.1606131,22.5405042 10.2557677,22.5126198 10.3523066,22.4900243 C10.4840095,22.4614062 10.5895424,22.3656144 10.6281919,22.2396044 C10.6668413,22.1135945 10.6325656,21.9770644 10.5385879,21.882686 C10.4771151,21.8200458 10.4165736,21.7501428 10.3523066,21.6766086 C10.1936949,21.4738194 10.0017094,21.2980439 9.78414839,21.156422 C9.53668717,21.0179296 9.28032997,20.8951183 9.01666914,20.7887508 C8.65248906,20.6335119 8.30879993,20.4864434 8.05638867,20.2676564 C5.84243457,18.3494115 5.09451486,14.8606206 6.35377694,12.3259591 C7.77882943,9.46175526 9.41531127,7.65789695 11.5072511,6.63477248 C13.4008012,5.71241715 15.737701,5.42554286 18.8588454,5.73329724 C20.0985479,5.85494647 21.1044673,6.31612414 21.932488,7.14224948 C25.297661,10.4957737 24.0607527,14.1388957 22.4298593,16.6036543 C20.803236,19.0450683 18.6980481,21.149414 16.2350723,22.7959631 C15.9761412,22.9702664 15.5942644,23.0510633 15.2244958,23.1291367 L15.0791964,23.1609107 C14.5054497,23.2852835 13.9186634,23.4023935 13.3505052,23.5149645 C12.3604198,23.7119636 11.3368036,23.9153175 10.3392669,24.1695099 C9.20388192,24.4581999 8.56959385,25.0927731 8.563074,25.9552116 C8.55189712,26.925682 8.88161514,27.5947527 9.56899341,27.9860275 C9.31192479,28.2284123 9.06817726,28.4838688 8.83877043,28.7513282 C8.21286502,29.5102741 8.38331248,29.8071345 8.43826548,29.9042724 C8.57518229,30.1430317 8.53140617,30.2011328 8.26688662,30.4743896 C8.21472784,30.5288594 8.16070624,30.5842371 8.11041027,30.6423382 C7.71269954,31.0962532 7.55156615,31.6200712 7.66147216,32.0785253 C7.76530622,32.4780729 8.06305665,32.8028678 8.45875643,32.9482265 C8.5475033,32.9832051 8.64245399,33.000789 8.73817849,32.9999728 C8.8240857,32.9983765 8.90973005,32.9901806 8.99431537,32.9754614 C9.04274853,32.9681988 9.08745606,32.961844 9.12378093,32.9600283 C9.22580846,32.954841 9.32117376,32.9090431 9.3875611,32.8333515 C9.45394845,32.7576599 9.48553207,32.6587169 9.47492131,32.5596753 C9.47492131,32.5297169 9.47492131,32.4816019 9.47492131,32.4343947 C9.47492131,32.2528287 9.48237257,32.0058989 9.28118869,31.8433973 C9.13868344,31.7290108 9.06137667,31.6191633 9.06789652,31.5429056 C9.07441636,31.4666479 9.18339097,31.3277499 9.40692861,31.2079163 C9.74130367,31.0263503 10.2219096,30.9355673 10.7593314,30.9355673 C11.273468,30.9419221 11.8080955,30.9891293 12.3250263,31.0354286 C13.2564332,31.1180411 14.2241649,31.2033772 15.163023,31.0644792 C16.1875705,30.9137794 16.8917141,30.4426156 17.1459882,29.7390473 C17.3909482,29.0599904 17.1711362,28.2574686 16.5424365,27.5112323 C16.9513242,26.5226054 16.7212667,26.086847 15.6110297,25.5802778 C14.3266196,24.9965431 12.9183325,24.9193775 11.4243559,25.3505968 C11.0014972,25.472246 10.5786384,25.6102362 10.1688194,25.7455029 C10.2686026,25.6256834 10.3909457,25.5255412 10.5292739,25.4504581 C12.2747303,24.6343189 14.0984249,24.3165784 15.9472676,24.5208402 C16.3636064,24.5671395 16.7780825,24.3474446 17.1105947,24.1704178 L17.1739304,24.136828 C17.3949173,24.0069276 17.5933012,23.8435963 17.7616481,23.6529546 C17.8007672,23.6121023 17.8398863,23.5721578 17.8799368,23.5322132 C18.4387809,22.982976 19.0209102,22.432831 19.5834799,21.8981191 C20.9163231,20.638051 22.2948053,19.3344071 23.4953887,17.9163765 C24.9819141,16.1760663 25.7344908,13.9845646 25.6832634,11.5833541 Z M14.2902948,26.7495629 C14.4281836,26.7750316 14.5585887,26.8299034 14.6721716,26.9102489 L13.0245128,27.0128336 C13.3343243,26.8369615 13.6834094,26.737255 14.0416091,26.722328 C14.1252181,26.7234658 14.2085115,26.7325877 14.2902948,26.7495629 L14.2902948,26.7495629 Z M14.1598978,29.4730531 C13.4725195,29.6782227 12.7860727,29.7254298 12.0269761,29.7072732 C12.7273941,29.3895327 13.5256097,29.3005654 14.1598978,29.4703296 L14.1598978,29.4730531 Z M15.6184809,28.5261863 C15.7237299,28.5615917 15.9342279,28.7985354 15.9686899,28.9174611 C15.952531,28.9775738 15.9310273,29.0361994 15.9044228,29.0926723 C15.8112822,28.8956732 15.6436289,28.7250011 15.3707267,28.5316333 C15.4516425,28.5108659 15.5363101,28.5080738 15.6184809,28.5234629 L15.6184809,28.5261863 Z" id="Shape"></path>
                    <path d="M11.3566789,22.924785 C11.4108575,22.9984725 11.4611039,23.0748164 11.5072191,23.1535148 C11.5705959,23.2691698 11.6944394,23.3414416 11.8292838,23.3414634 L11.8384075,23.3414634 C11.9770938,23.3382286 12.1019003,23.2588672 12.1604722,23.1366704 C12.2026216,23.0542554 12.249217,22.9740589 12.300064,22.8964154 C12.4460424,22.6623662 12.6120928,22.3972878 12.5828971,22.0932012 C12.4624649,20.83696 12.2653942,19.5984499 12.0883954,18.5514345 C11.9971589,18.0390087 11.8794639,17.5425408 11.7626812,17.0620307 C11.7435215,16.9849009 11.7243619,16.9077711 11.7061146,16.8324143 L14.5180227,16.3714084 C14.498863,16.4405593 14.478791,16.5123698 14.4614561,16.5841804 C14.3793432,16.9122038 14.2890191,17.2473196 14.2005198,17.5709103 C13.9715162,18.4166789 13.733389,19.2908171 13.6275547,20.177367 C13.5563903,20.774015 13.7561981,21.3671169 13.9505318,21.9407146 C13.9961501,22.0772433 14.0417683,22.2119989 14.0828247,22.3458679 C14.1667623,22.6189253 14.4578066,22.7004879 14.691372,22.7722984 C14.7579746,22.7918025 14.8273143,22.8121931 14.8738449,22.8308107 C14.9779615,22.8744016 15.0970136,22.8684992 15.1960237,22.8148377 C15.2950338,22.7611761 15.3627565,22.6658503 15.379295,22.5568668 C15.3891494,22.5004215 15.4019389,22.4444972 15.4176143,22.3893089 C15.4632325,22.2119989 15.5197992,21.9974538 15.4477223,21.778476 C14.7050575,19.5177739 15.2004715,17.4290624 17.0543966,15.0087812 C17.1828094,14.8206546 17.2717892,14.6097713 17.3162453,14.3881963 C17.3372297,14.3092934 17.3573017,14.2348232 17.3801109,14.168332 C17.4192376,14.0579249 17.3999216,13.9358774 17.3284628,13.8419958 C17.2570041,13.7481143 17.1425625,13.6944331 17.0224639,13.6984605 C16.9549489,13.6984605 16.8764855,13.6984605 16.7934603,13.6922547 C16.5644568,13.6780699 16.3053452,13.6638851 16.0635685,13.7809097 C15.7793247,13.9253832 15.5031043,14.0842955 15.2360537,14.256987 C14.8318762,14.5087671 14.4495953,14.747249 14.0445054,14.8651602 C13.1963962,15.1064813 12.3118873,15.2042451 11.4296681,15.1541754 C11.3548541,15.1071883 11.2107005,14.8988491 11.1231135,14.772959 C10.993193,14.5666091 10.8371804,14.3768877 10.6587199,14.2082267 C10.448876,14.0309167 10.1824655,13.9573331 9.94707536,13.8952746 C9.85583889,13.8713378 9.7728137,13.849174 9.69799979,13.8225775 C9.5907814,13.7854994 9.47189975,13.7991467 9.37652487,13.859482 C9.28114999,13.9198172 9.22020111,14.0199327 9.21170939,14.1302103 C9.20532283,14.2108864 9.1879879,14.302201 9.16974061,14.3961753 C9.12047291,14.6621402 9.0639063,14.9644537 9.19528682,15.2392842 C9.32182275,15.4800105 9.48075163,15.703311 9.66789175,15.9033101 C9.8503647,16.1116493 10.0155027,16.3084633 10.0629457,16.4964119 C10.1633058,16.8935863 10.276439,17.2943068 10.3850104,17.6817291 C10.8065229,19.1888639 11.2061387,20.6073436 11.0455625,22.134869 C11.0099803,22.436296 11.194278,22.6960551 11.3566789,22.924785 Z" id="Path"></path>
                    <path d="M27.1567223,20.6023249 C27.0539323,20.3918302 26.9306854,20.1984985 26.7898703,20.0268609 C26.5804838,19.787623 26.297046,19.4966581 25.9599848,19.3608745 C25.7378308,19.2725073 25.5207838,19.3360886 25.3301229,19.3921263 C25.2645832,19.4115239 25.2041505,19.4298439 25.1505271,19.4395428 C25.0530468,19.4565327 24.9661395,19.5260887 24.912201,19.6302864 C24.8583063,19.7351994 24.8430856,19.8645887 24.870494,19.9848326 C24.8861319,20.0614929 24.8983513,20.1392063 24.907094,20.2176045 C24.942843,20.4783953 24.9862524,20.8027674 25.1828714,21.0107534 C25.4015933,21.2211195 25.6444255,21.3879255 25.9029567,21.5053938 C26.0102035,21.5625091 26.1217061,21.6217798 26.234911,21.6896716 C26.2802974,21.7174194 26.3300593,21.7317884 26.3804601,21.7316999 C26.4118976,21.7319453 26.4431815,21.7261312 26.4732371,21.7144575 L27.0954385,21.4913844 C27.2029909,21.4526957 27.2886848,21.3496146 27.3247038,21.2156012 C27.3607229,21.0815878 27.3424758,20.9337252 27.2758854,20.8200097 C27.2350295,20.7499626 27.1958759,20.6756049 27.1567223,20.6023249 Z" id="Path"></path>
                    <path d="M7.23771981,5.0382643 C7.32172499,5.16685825 7.41104696,5.30440495 7.50568571,5.45334605 C7.56681533,5.54986417 7.68613674,5.6171423 7.82469273,5.63321481 C7.84770355,5.63445685 7.8708001,5.63445685 7.89381092,5.63321481 C8.00769664,5.63328593 8.11686288,5.59839803 8.19686759,5.5363624 C8.34680089,5.41916285 8.49248076,5.31498547 8.62221029,5.22301637 C8.97843479,4.96745623 9.23683048,4.78351804 9.05393312,4.52714402 C8.81718085,4.21196857 8.55509092,3.9083477 8.26917585,3.61803358 C8.18091724,3.53420334 8.09797541,3.44548979 8.0171603,3.35677624 C7.94988692,3.28390017 7.84648086,3.2353532 7.73111734,3.22248508 C7.61751931,3.21065648 7.50249284,3.2344274 7.41211031,3.28840983 C7.35468905,3.32259304 7.26962051,3.36979841 7.18774204,3.40967882 C6.85065795,3.58547815 6.53165093,3.75069697 6.65606367,4.03067368 C6.81997861,4.37621148 7.01430951,4.71284678 7.23771981,5.0382643 L7.23771981,5.0382643 Z" id="Path"></path>
                    <path d="M15.8823357,2.27299216 C15.9531348,2.35025274 16.0617806,2.40128142 16.1825418,2.4139927 C16.202025,2.41484796 16.2215546,2.41484796 16.2410378,2.4139927 C16.3427818,2.41403538 16.441422,2.38670144 16.5202736,2.33661435 C16.5831844,2.29620566 16.6792062,2.24633962 16.7719169,2.19819309 C17.1107523,2.02108266 17.4606248,1.83881367 17.3910918,1.53445886 C17.2960105,1.19371922 17.1512212,0.862566831 16.9595456,0.547455091 C16.8966348,0.433107094 16.8370351,0.325637171 16.7829538,0.216447731 C16.7280855,0.110188936 16.6089096,0.0321811664 16.4650886,0.0083859614 C16.3214926,-0.0167706464 16.1712464,0.0154714445 16.064446,0.0943618991 L15.0490432,0.860407504 C14.8914443,0.979000411 14.8693608,1.16969288 14.9971694,1.30834214 L15.8823357,2.27299216 Z" id="Path"></path>
                    <path d="M3.11024589,22.1522336 C2.91457128,21.9083829 2.73748576,21.6777133 2.39309845,21.7428866 C2.04321607,21.8172955 1.70377054,21.9168617 1.37950398,22.040194 C1.27383969,22.0775405 1.1681754,22.1134225 1.06153274,22.1500367 C0.964854276,22.1812815 0.889528035,22.2408374 0.853139279,22.3148007 C0.816152504,22.389201 0.821095511,22.4716515 0.866836502,22.5432734 L1.27188294,23.1752349 C1.31916965,23.2492572 1.40576803,23.3050418 1.51060596,23.3290146 C1.54780124,23.3371357 1.58633051,23.3413258 1.62507561,23.3414634 C1.69380823,23.3413721 1.76129651,23.3277336 1.82075022,23.3019201 L3.11905125,22.7343997 C3.21346255,22.6934786 3.28076607,22.6249177 3.30472791,22.545254 C3.32868975,22.4655903 3.30713449,22.3820563 3.24526137,22.3148007 C3.20710482,22.2745251 3.15818617,22.2122809 3.11024589,22.1522336 Z" id="Path"></path>
                    <path d="M28.9049042,13.6608385 L28.2093353,12.9884754 C28.0857784,12.8690518 27.8775111,12.8430992 27.7182331,12.9272783 L26.6939888,13.4667792 C26.5948118,13.5189919 26.5294559,13.6065966 26.5166036,13.7045507 C26.5037514,13.8025048 26.5448174,13.9000271 26.6280626,13.9692398 C26.6691471,14.0038645 26.7236078,14.0578146 26.7713804,14.1101542 C26.9338072,14.2792515 27.1334966,14.4878049 27.4277758,14.4878049 L27.4640829,14.4878049 C27.7904119,14.457205 28.109705,14.3866772 28.4118911,14.2784463 C28.5236789,14.2438216 28.6287786,14.2108074 28.7338783,14.1826245 C28.8565159,14.1496806 28.9512386,14.0669231 28.9858873,13.9624487 C29.0205361,13.8579743 28.9904561,13.7458187 28.9058596,13.6640594 L28.9049042,13.6608385 Z" id="Path"></path>
                    <path d="M25.8449136,8.40441963 C25.9757834,8.62575997 26.11012,8.85365854 26.3545258,8.85365854 C26.383659,8.85336179 26.4126898,8.85034124 26.4411946,8.84464097 C26.7921613,8.7650533 27.1365622,8.66148938 27.4716859,8.53476449 C27.6138226,8.48557775 27.7689596,8.43147234 27.9405637,8.37080869 C28.0576962,8.33153844 28.1436457,8.23596905 28.1658448,8.12031308 C28.1880438,8.0046571 28.1430961,7.8866093 28.048033,7.81089961 C27.9310302,7.7174448 27.8330945,7.62726911 27.7464258,7.54857032 C27.532354,7.35592225 27.3494829,7.18786754 27.0894767,7.26164766 C26.7795762,7.35848388 26.4786762,7.47940377 26.1898552,7.62317021 C26.0884528,7.67071739 25.987917,7.7174448 25.8865146,7.76171287 C25.794822,7.80194264 25.7262577,7.87802051 25.6987759,7.97002488 C25.6712941,8.06202925 25.6876319,8.16079656 25.7435112,8.24046382 C25.7721119,8.28145277 25.8085128,8.34375598 25.8449136,8.40441963 Z" id="Path"></path>
                    <path d="M1.16531305,11.296525 C1.37187078,11.5486689 1.60528102,11.8348575 1.92337993,12.0093368 C1.99858558,12.0511513 2.08268988,12.0730849 2.16815085,12.0731707 C2.40775782,12.0731707 2.64426643,11.9103943 2.85908647,11.7635763 C2.94274235,11.7061258 3.02846381,11.6476114 3.0935295,11.6125028 C3.19864435,11.5555299 3.27486827,11.4547069 3.30274462,11.3357695 C3.33062097,11.2168322 3.30745235,11.0912892 3.2391527,10.9911862 L2.45733168,9.84323993 C2.3947222,9.7492944 2.29815249,9.68513979 2.1892477,9.66514242 C2.08034291,9.64514506 1.96820207,9.67097573 1.87793723,9.7368501 L1.00006686,10.3900836 C0.903318983,10.4619472 0.84144519,10.5733793 0.830360878,10.6957171 C0.819276567,10.8180549 0.860063638,10.9393573 0.942230696,11.0284226 C1.01555869,11.1124706 1.08888669,11.201838 1.16531305,11.296525 Z" id="Path"></path>
                    <path d="M23.0754405,4.82926829 C23.1424766,4.82783987 23.2079815,4.80645292 23.2652957,4.76728172 C23.6364627,4.53643516 23.9933905,4.27566406 24.404427,3.97321232 L24.6835142,3.76801538 C24.7823275,3.69612757 24.8459615,3.57673264 24.8558085,3.44474372 C24.8656556,3.31275481 24.8206034,3.18308212 24.7338259,3.0936442 C24.6388982,2.9931832 24.5439706,2.89058473 24.4623329,2.80081107 C24.211724,2.52294022 23.995289,2.28247506 23.7143033,2.4972906 C23.2869739,2.82719934 22.8809338,3.19076589 22.4992299,3.58526186 C22.2391282,3.84923917 22.4375269,4.16130951 22.5552372,4.34726924 C22.7080706,4.58559693 22.8637519,4.82926829 23.0754405,4.82926829 Z" id="Path"></path>
                    <path d="M2.23062976,18.1694879 C2.36499346,18.1253265 2.46092431,18.0229367 2.48158357,17.9016375 C2.50224282,17.7803384 2.44441881,17.658987 2.33031672,17.584184 C2.18178315,17.4874816 2.05717445,17.3950206 1.94652193,17.3144353 C1.70129201,17.1337545 1.48895879,16.9751287 1.21182905,16.9191431 C0.912768176,16.8555231 0.646603998,16.9870044 0.42928643,17.0887964 C0.359505559,17.1227271 0.293712167,17.1549612 0.23888434,17.1736231 C0.12453075,17.2162082 0.0402108714,17.3019032 0.0110430732,17.40518 C-0.018124725,17.5084569 0.0112256016,17.6173972 0.0903507728,17.6995483 C0.148169208,17.7597752 0.204990774,17.82594 0.264802949,17.8971944 C0.42828956,18.0897508 0.613707302,18.3077553 0.885852697,18.4477193 C0.965931263,18.4903105 1.05858117,18.5126677 1.15301374,18.5121875 C1.3444127,18.5121875 1.54578036,18.4273609 1.76708541,18.3425343 C1.9016628,18.2899417 2.05518071,18.22717 2.23062976,18.1694879 Z" id="Path"></path>
                </g>
            </g>
        </g>
    </g>
</svg>